<svg fill="none" height="13" viewBox="0 0 183 13" width="183" xmlns="http://www.w3.org/2000/svg">
    <path
        d="M2.024 2.352V5.616H5.864V7.104H2.024V10.512H6.344V12H0.2V0.863999H6.344V2.352H2.024ZM14.9586 3.04C15.652 3.04 16.2706 3.184 16.8146 3.472C17.3693 3.76 17.8013 4.18667 18.1106 4.752C18.42 5.31733 18.5746 6 18.5746 6.8V12H16.7666V7.072C16.7666 6.28267 16.5693 5.68 16.1746 5.264C15.78 4.83733 15.2413 4.624 14.5586 4.624C13.876 4.624 13.332 4.83733 12.9266 5.264C12.532 5.68 12.3346 6.28267 12.3346 7.072V12H10.5106V3.184H12.3346V4.192C12.6333 3.82933 13.012 3.54667 13.4706 3.344C13.94 3.14133 14.436 3.04 14.9586 3.04ZM24.9493 4.672V9.552C24.9493 9.88267 25.0239 10.1227 25.1733 10.272C25.3333 10.4107 25.5999 10.48 25.9733 10.48H27.0933V12H25.6533C24.8319 12 24.2026 11.808 23.7653 11.424C23.3279 11.04 23.1093 10.416 23.1093 9.552V4.672H22.0693V3.184H23.1093V0.992H24.9493V3.184H27.0933V4.672H24.9493ZM38.7744 7.376C38.7744 7.70667 38.753 8.00533 38.7104 8.272H31.9744C32.0277 8.976 32.289 9.54133 32.7584 9.968C33.2277 10.3947 33.8037 10.608 34.4864 10.608C35.4677 10.608 36.161 10.1973 36.5664 9.376H38.5344C38.2677 10.1867 37.7824 10.8533 37.0784 11.376C36.385 11.888 35.521 12.144 34.4864 12.144C33.6437 12.144 32.8864 11.9573 32.2144 11.584C31.553 11.2 31.0304 10.6667 30.6464 9.984C30.273 9.29067 30.0864 8.49067 30.0864 7.584C30.0864 6.67733 30.2677 5.88267 30.6304 5.2C31.0037 4.50667 31.521 3.97333 32.1824 3.6C32.8544 3.22667 33.6224 3.04 34.4864 3.04C35.3184 3.04 36.0597 3.22133 36.7104 3.584C37.361 3.94667 37.8677 4.45867 38.2304 5.12C38.593 5.77067 38.7744 6.52267 38.7744 7.376ZM36.8704 6.8C36.8597 6.128 36.6197 5.58933 36.1504 5.184C35.681 4.77867 35.0997 4.576 34.4064 4.576C33.777 4.576 33.2384 4.77867 32.7904 5.184C32.3424 5.57867 32.0757 6.11733 31.9904 6.8H36.8704ZM44.3134 4.464C44.58 4.016 44.932 3.66933 45.3694 3.424C45.8174 3.168 46.3454 3.04 46.9534 3.04V4.928H46.4894C45.7747 4.928 45.2307 5.10933 44.8574 5.472C44.4947 5.83467 44.3134 6.464 44.3134 7.36V12H42.4894V3.184H44.3134V4.464ZM64.8663 0.879999L61.1863 7.968V12H59.3623V7.968L55.6663 0.879999H57.6983L60.2743 6.336L62.8503 0.879999H64.8663ZM72.0578 12.144C71.2258 12.144 70.4738 11.9573 69.8018 11.584C69.1298 11.2 68.6018 10.6667 68.2178 9.984C67.8338 9.29067 67.6418 8.49067 67.6418 7.584C67.6418 6.688 67.8391 5.89333 68.2338 5.2C68.6284 4.50667 69.1671 3.97333 69.8498 3.6C70.5324 3.22667 71.2951 3.04 72.1378 3.04C72.9804 3.04 73.7431 3.22667 74.4258 3.6C75.1084 3.97333 75.6471 4.50667 76.0418 5.2C76.4364 5.89333 76.6338 6.688 76.6338 7.584C76.6338 8.48 76.4311 9.27467 76.0258 9.968C75.6204 10.6613 75.0658 11.2 74.3618 11.584C73.6684 11.9573 72.9004 12.144 72.0578 12.144ZM72.0578 10.56C72.5271 10.56 72.9644 10.448 73.3698 10.224C73.7858 10 74.1218 9.664 74.3778 9.216C74.6338 8.768 74.7618 8.224 74.7618 7.584C74.7618 6.944 74.6391 6.40533 74.3938 5.968C74.1484 5.52 73.8231 5.184 73.4178 4.96C73.0124 4.736 72.5751 4.624 72.1058 4.624C71.6364 4.624 71.1991 4.736 70.7938 4.96C70.3991 5.184 70.0844 5.52 69.8498 5.968C69.6151 6.40533 69.4978 6.944 69.4978 7.584C69.4978 8.53333 69.7378 9.26933 70.2178 9.792C70.7084 10.304 71.3218 10.56 72.0578 10.56ZM88.3409 3.184V12H86.5169V10.96C86.2289 11.3227 85.8502 11.6107 85.3809 11.824C84.9222 12.0267 84.4315 12.128 83.9089 12.128C83.2155 12.128 82.5915 11.984 82.0369 11.696C81.4929 11.408 81.0609 10.9813 80.7409 10.416C80.4315 9.85067 80.2769 9.168 80.2769 8.368V3.184H82.0849V8.096C82.0849 8.88533 82.2822 9.49333 82.6769 9.92C83.0715 10.336 83.6102 10.544 84.2929 10.544C84.9755 10.544 85.5142 10.336 85.9089 9.92C86.3142 9.49333 86.5169 8.88533 86.5169 8.096V3.184H88.3409ZM94.4915 4.464C94.7582 4.016 95.1102 3.66933 95.5475 3.424C95.9955 3.168 96.5235 3.04 97.1315 3.04V4.928H96.6675C95.9528 4.928 95.4088 5.10933 95.0355 5.472C94.6728 5.83467 94.4915 6.464 94.4915 7.36V12H92.6675V3.184H94.4915V4.464ZM113.508 9.728H108.852L108.052 12H106.148L110.132 0.863999H112.244L116.228 12H114.308L113.508 9.728ZM112.996 8.24L111.188 3.072L109.364 8.24H112.996ZM119.273 7.552C119.273 6.66667 119.454 5.88267 119.817 5.2C120.19 4.51733 120.691 3.98933 121.321 3.616C121.961 3.232 122.67 3.04 123.449 3.04C124.025 3.04 124.59 3.168 125.145 3.424C125.71 3.66933 126.158 4 126.489 4.416V0.16H128.329V12H126.489V10.672C126.19 11.0987 125.774 11.4507 125.241 11.728C124.718 12.0053 124.115 12.144 123.433 12.144C122.665 12.144 121.961 11.952 121.321 11.568C120.691 11.1733 120.19 10.6293 119.817 9.936C119.454 9.232 119.273 8.43733 119.273 7.552ZM126.489 7.584C126.489 6.976 126.361 6.448 126.105 6C125.859 5.552 125.534 5.21067 125.129 4.976C124.723 4.74133 124.286 4.624 123.817 4.624C123.347 4.624 122.91 4.74133 122.505 4.976C122.099 5.2 121.769 5.536 121.513 5.984C121.267 6.42133 121.145 6.944 121.145 7.552C121.145 8.16 121.267 8.69333 121.513 9.152C121.769 9.61067 122.099 9.96267 122.505 10.208C122.921 10.4427 123.358 10.56 123.817 10.56C124.286 10.56 124.723 10.4427 125.129 10.208C125.534 9.97333 125.859 9.632 126.105 9.184C126.361 8.72533 126.489 8.192 126.489 7.584ZM132.036 7.552C132.036 6.66667 132.218 5.88267 132.58 5.2C132.954 4.51733 133.455 3.98933 134.084 3.616C134.724 3.232 135.434 3.04 136.212 3.04C136.788 3.04 137.354 3.168 137.908 3.424C138.474 3.66933 138.922 4 139.252 4.416V0.16H141.092V12H139.252V10.672C138.954 11.0987 138.538 11.4507 138.004 11.728C137.482 12.0053 136.879 12.144 136.196 12.144C135.428 12.144 134.724 11.952 134.084 11.568C133.455 11.1733 132.954 10.6293 132.58 9.936C132.218 9.232 132.036 8.43733 132.036 7.552ZM139.252 7.584C139.252 6.976 139.124 6.448 138.868 6C138.623 5.552 138.298 5.21067 137.892 4.976C137.487 4.74133 137.05 4.624 136.58 4.624C136.111 4.624 135.674 4.74133 135.268 4.976C134.863 5.2 134.532 5.536 134.276 5.984C134.031 6.42133 133.908 6.944 133.908 7.552C133.908 8.16 134.031 8.69333 134.276 9.152C134.532 9.61067 134.863 9.96267 135.268 10.208C135.684 10.4427 136.122 10.56 136.58 10.56C137.05 10.56 137.487 10.4427 137.892 10.208C138.298 9.97333 138.623 9.632 138.868 9.184C139.124 8.72533 139.252 8.192 139.252 7.584ZM147.232 4.464C147.499 4.016 147.851 3.66933 148.288 3.424C148.736 3.168 149.264 3.04 149.872 3.04V4.928H149.408C148.693 4.928 148.149 5.10933 147.776 5.472C147.413 5.83467 147.232 6.464 147.232 7.36V12H145.408V3.184H147.232V4.464ZM161.549 7.376C161.549 7.70667 161.527 8.00533 161.485 8.272H154.749C154.802 8.976 155.063 9.54133 155.533 9.968C156.002 10.3947 156.578 10.608 157.261 10.608C158.242 10.608 158.935 10.1973 159.341 9.376H161.309C161.042 10.1867 160.557 10.8533 159.853 11.376C159.159 11.888 158.295 12.144 157.261 12.144C156.418 12.144 155.661 11.9573 154.989 11.584C154.327 11.2 153.805 10.6667 153.421 9.984C153.047 9.29067 152.861 8.49067 152.861 7.584C152.861 6.67733 153.042 5.88267 153.405 5.2C153.778 4.50667 154.295 3.97333 154.957 3.6C155.629 3.22667 156.397 3.04 157.261 3.04C158.093 3.04 158.834 3.22133 159.485 3.584C160.135 3.94667 160.642 4.45867 161.005 5.12C161.367 5.77067 161.549 6.52267 161.549 7.376ZM159.645 6.8C159.634 6.128 159.394 5.58933 158.925 5.184C158.455 4.77867 157.874 4.576 157.181 4.576C156.551 4.576 156.013 4.77867 155.565 5.184C155.117 5.57867 154.85 6.11733 154.765 6.8H159.645ZM168.464 12.144C167.77 12.144 167.146 12.0213 166.592 11.776C166.048 11.52 165.616 11.1787 165.296 10.752C164.976 10.3147 164.805 9.82933 164.784 9.296H166.672C166.704 9.66933 166.88 9.984 167.2 10.24C167.53 10.4853 167.941 10.608 168.432 10.608C168.944 10.608 169.338 10.512 169.616 10.32C169.904 10.1173 170.048 9.86133 170.048 9.552C170.048 9.22133 169.888 8.976 169.568 8.816C169.258 8.656 168.762 8.48 168.08 8.288C167.418 8.10667 166.88 7.93067 166.464 7.76C166.048 7.58933 165.685 7.328 165.376 6.976C165.077 6.624 164.928 6.16 164.928 5.584C164.928 5.11467 165.066 4.688 165.344 4.304C165.621 3.90933 166.016 3.6 166.528 3.376C167.05 3.152 167.648 3.04 168.32 3.04C169.322 3.04 170.128 3.296 170.736 3.808C171.354 4.30933 171.685 4.99733 171.728 5.872H169.904C169.872 5.47733 169.712 5.16267 169.424 4.928C169.136 4.69333 168.746 4.576 168.256 4.576C167.776 4.576 167.408 4.66667 167.152 4.848C166.896 5.02933 166.768 5.26933 166.768 5.568C166.768 5.80267 166.853 6 167.024 6.16C167.194 6.32 167.402 6.448 167.648 6.544C167.893 6.62933 168.256 6.74133 168.736 6.88C169.376 7.05067 169.898 7.22667 170.304 7.408C170.72 7.57867 171.077 7.83467 171.376 8.176C171.674 8.51733 171.829 8.97067 171.84 9.536C171.84 10.0373 171.701 10.4853 171.424 10.88C171.146 11.2747 170.752 11.584 170.24 11.808C169.738 12.032 169.146 12.144 168.464 12.144ZM178.931 12.144C178.237 12.144 177.613 12.0213 177.059 11.776C176.515 11.52 176.083 11.1787 175.763 10.752C175.443 10.3147 175.272 9.82933 175.251 9.296H177.139C177.171 9.66933 177.347 9.984 177.667 10.24C177.997 10.4853 178.408 10.608 178.899 10.608C179.411 10.608 179.805 10.512 180.083 10.32C180.371 10.1173 180.515 9.86133 180.515 9.552C180.515 9.22133 180.355 8.976 180.035 8.816C179.725 8.656 179.229 8.48 178.547 8.288C177.885 8.10667 177.347 7.93067 176.931 7.76C176.515 7.58933 176.152 7.328 175.843 6.976C175.544 6.624 175.395 6.16 175.395 5.584C175.395 5.11467 175.533 4.688 175.811 4.304C176.088 3.90933 176.483 3.6 176.995 3.376C177.517 3.152 178.115 3.04 178.787 3.04C179.789 3.04 180.595 3.296 181.203 3.808C181.821 4.30933 182.152 4.99733 182.195 5.872H180.371C180.339 5.47733 180.179 5.16267 179.891 4.928C179.603 4.69333 179.213 4.576 178.723 4.576C178.243 4.576 177.875 4.66667 177.619 4.848C177.363 5.02933 177.235 5.26933 177.235 5.568C177.235 5.80267 177.32 6 177.491 6.16C177.661 6.32 177.869 6.448 178.115 6.544C178.36 6.62933 178.723 6.74133 179.203 6.88C179.843 7.05067 180.365 7.22667 180.771 7.408C181.187 7.57867 181.544 7.83467 181.843 8.176C182.141 8.51733 182.296 8.97067 182.307 9.536C182.307 10.0373 182.168 10.4853 181.891 10.88C181.613 11.2747 181.219 11.584 180.707 11.808C180.205 12.032 179.613 12.144 178.931 12.144Z"
        fill="black" />
</svg>
