<svg fill="none" height="40" viewBox="0 0 365 40" width="365" xmlns="http://www.w3.org/2000/svg">
    <path
        d="M14.4 33.885C14.4 35.425 13.9233 36.6717 12.97 37.625C12.0167 38.5417 10.77 39 9.23 39H5.27C3.73 39 2.48333 38.5417 1.53 37.625C0.576667 36.6717 0.1 35.425 0.1 33.885V5.615C0.1 4.075 0.576667 2.84666 1.53 1.93C2.48333 0.976664 3.73 0.499997 5.27 0.499997H9.23C10.77 0.499997 12.0167 0.976664 12.97 1.93C13.9233 2.84666 14.4 4.075 14.4 5.615V14.415H9.175V5.89C9.175 5.70666 9.08333 5.615 8.9 5.615H5.6C5.41667 5.615 5.325 5.70666 5.325 5.89V33.61C5.325 33.7933 5.41667 33.885 5.6 33.885H8.9C9.08333 33.885 9.175 33.7933 9.175 33.61V22.225H7.03L7.47 17.11H14.4V33.885ZM23.1893 34.105V16.395C23.1893 14.855 23.6659 13.6267 24.6193 12.71C25.5726 11.7567 26.8193 11.28 28.3593 11.28H31.7693C33.3093 11.28 34.5559 11.7567 35.5093 12.71C36.4626 13.6267 36.9393 14.855 36.9393 16.395V23.16H31.7143V16.67C31.7143 16.4867 31.6226 16.395 31.4393 16.395H28.6893C28.5059 16.395 28.4143 16.4867 28.4143 16.67V23.16H36.9393V28.275H28.4143V33.83C28.4143 34.0133 28.5059 34.105 28.6893 34.105H31.4393C31.6226 34.105 31.7143 34.0317 31.7143 33.885V30.86H36.9393V34.105C36.9393 35.645 36.4626 36.8917 35.5093 37.845C34.5559 38.7617 33.3093 39.22 31.7693 39.22H28.3593C26.8193 39.22 25.5726 38.7617 24.6193 37.845C23.6659 36.8917 23.1893 35.645 23.1893 34.105ZM55.8614 33.885V39H52.6714C51.1314 39 49.8847 38.5417 48.9314 37.625C47.9781 36.6717 47.5014 35.425 47.5014 33.885V16.615H45.1914L45.6314 11.5H47.5014V5.615H46.1264L46.5664 0.499997H52.7264V11.5H55.8614L55.4214 16.615H52.7264V33.885H55.8614ZM85.8119 28V33.83C85.8119 34.0133 85.9036 34.105 86.0869 34.105H88.2869C88.4702 34.105 88.5619 34.0133 88.5619 33.83V23.93L84.2169 22.005C83.8869 21.895 83.4286 21.7117 82.8419 21.455C82.2552 21.1617 81.7236 20.74 81.2469 20.19C80.8069 19.64 80.5869 18.8883 80.5869 17.935V5.395C80.5869 3.855 81.0636 2.62666 82.0169 1.71C82.9702 0.756664 84.2169 0.279997 85.7569 0.279997H88.6169C90.1569 0.279997 91.4036 0.756664 92.3569 1.71C93.3102 2.62666 93.7869 3.855 93.7869 5.395V13.535L88.5619 13.095V5.67C88.5619 5.48667 88.4702 5.395 88.2869 5.395H86.0869C85.9036 5.395 85.8119 5.48667 85.8119 5.67V17.165L90.1569 19.09C90.4869 19.2367 90.9452 19.4383 91.5319 19.695C92.1186 19.9517 92.6319 20.355 93.0719 20.905C93.5486 21.455 93.7869 22.2067 93.7869 23.16V34.105C93.7869 35.645 93.3102 36.8917 92.3569 37.845C91.4036 38.7617 90.1569 39.22 88.6169 39.22H85.7569C84.2169 39.22 82.9702 38.7617 82.0169 37.845C81.0636 36.8917 80.5869 35.645 80.5869 34.105V28H85.8119ZM102.602 34.105V16.395C102.602 14.855 103.079 13.6267 104.032 12.71C104.985 11.7567 106.232 11.28 107.772 11.28H111.182C112.722 11.28 113.969 11.7567 114.922 12.71C115.875 13.6267 116.352 14.855 116.352 16.395V23.16H111.127V16.67C111.127 16.4867 111.035 16.395 110.852 16.395H108.102C107.919 16.395 107.827 16.4867 107.827 16.67V23.16H116.352V28.275H107.827V33.83C107.827 34.0133 107.919 34.105 108.102 34.105H110.852C111.035 34.105 111.127 34.0317 111.127 33.885V30.86H116.352V34.105C116.352 35.645 115.875 36.8917 114.922 37.845C113.969 38.7617 112.722 39.22 111.182 39.22H107.772C106.232 39.22 104.985 38.7617 104.032 37.845C103.079 36.8917 102.602 35.645 102.602 34.105ZM125.154 34.105V16.395C125.154 14.855 125.631 13.6267 126.584 12.71C127.537 11.7567 128.784 11.28 130.324 11.28H133.734C135.274 11.28 136.521 11.7567 137.474 12.71C138.427 13.6267 138.904 14.855 138.904 16.395V23.16H133.679V16.67C133.679 16.4867 133.587 16.395 133.404 16.395H130.654C130.471 16.395 130.379 16.4867 130.379 16.67V23.16H138.904V28.275H130.379V33.83C130.379 34.0133 130.471 34.105 130.654 34.105H133.404C133.587 34.105 133.679 34.0317 133.679 33.885V30.86H138.904V34.105C138.904 35.645 138.427 36.8917 137.474 37.845C136.521 38.7617 135.274 39.22 133.734 39.22H130.324C128.784 39.22 127.537 38.7617 126.584 37.845C125.631 36.8917 125.154 35.645 125.154 34.105ZM153.261 39C151.575 39 150.218 38.5233 149.191 37.57C148.201 36.58 147.706 35.3517 147.706 33.885V16.615C147.706 15.1117 148.201 13.8833 149.191 12.93C150.218 11.9767 151.575 11.5 153.261 11.5H153.481C154.471 11.5 155.351 11.7383 156.121 12.215V5.615H154.801L155.351 0.499997H161.346V33.885H162.116L162.666 39H156.121V36.855L154.746 39H153.261ZM153.206 16.615C153.023 16.615 152.931 16.7067 152.931 16.89V33.61C152.931 33.7933 153.023 33.885 153.206 33.885H156.121V16.615H153.206ZM170.366 30.365L175.591 30.915V33.61C175.591 33.7933 175.682 33.885 175.866 33.885H178.066C178.249 33.885 178.341 33.7933 178.341 33.61V28.495L173.446 26.405C172.859 26.1483 172.199 25.745 171.466 25.195C170.732 24.645 170.366 23.7467 170.366 22.5V16.395C170.366 14.855 170.842 13.6267 171.796 12.71C172.749 11.7567 173.996 11.28 175.536 11.28H178.396C179.936 11.28 181.182 11.7567 182.136 12.71C183.089 13.6267 183.566 14.855 183.566 16.395V19.915L178.341 19.365V16.67C178.341 16.4867 178.249 16.395 178.066 16.395H175.866C175.682 16.395 175.591 16.4867 175.591 16.67V21.785L180.486 23.875C181.072 24.1317 181.732 24.535 182.466 25.085C183.199 25.635 183.566 26.5333 183.566 27.78V33.885C183.566 35.425 183.089 36.6717 182.136 37.625C181.182 38.5417 179.936 39 178.396 39H175.536C173.996 39 172.749 38.5417 171.796 37.625C170.842 36.6717 170.366 35.425 170.366 33.885V30.365ZM220.249 17.165L219.699 22.28H214.089V39H208.864V5.615H208.039L208.589 0.499997H221.349L220.799 5.615H214.089V17.165H220.249ZM238.396 16.67C238.396 16.4867 238.304 16.395 238.121 16.395H234.821C234.638 16.395 234.546 16.4867 234.546 16.67V33.83C234.546 34.0133 234.638 34.105 234.821 34.105H238.121C238.304 34.105 238.396 34.0317 238.396 33.885V16.67ZM229.321 34.105V16.395C229.321 14.855 229.798 13.6267 230.751 12.71C231.704 11.7567 232.951 11.28 234.491 11.28H238.451C239.991 11.28 241.238 11.7567 242.191 12.71C243.144 13.6267 243.621 14.855 243.621 16.395V34.105C243.621 35.645 243.144 36.8917 242.191 37.845C241.238 38.7617 239.991 39.22 238.451 39.22H234.491C232.951 39.22 231.704 38.7617 230.751 37.845C229.798 36.8917 229.321 35.645 229.321 34.105ZM258.405 11.5V13.92L259.89 11.5H263.575V16.835H258.405V39H253.18V16.615H251.86L252.41 11.5H258.405ZM299.715 17.165L299.165 22.28H293.555V39H288.33V5.615H287.505L288.055 0.499997H300.815L300.265 5.615H293.555V17.165H299.715ZM315.051 11.5V13.92L316.536 11.5H320.221V16.835H315.051V39H309.826V16.615H308.506L309.056 11.5H315.051ZM328.493 34.105V16.395C328.493 14.855 328.97 13.6267 329.923 12.71C330.876 11.7567 332.123 11.28 333.663 11.28H337.073C338.613 11.28 339.86 11.7567 340.813 12.71C341.766 13.6267 342.243 14.855 342.243 16.395V23.16H337.018V16.67C337.018 16.4867 336.926 16.395 336.743 16.395H333.993C333.81 16.395 333.718 16.4867 333.718 16.67V23.16H342.243V28.275H333.718V33.83C333.718 34.0133 333.81 34.105 333.993 34.105H336.743C336.926 34.105 337.018 34.0317 337.018 33.885V30.86H342.243V34.105C342.243 35.645 341.766 36.8917 340.813 37.845C339.86 38.7617 338.613 39.22 337.073 39.22H333.663C332.123 39.22 330.876 38.7617 329.923 37.845C328.97 36.8917 328.493 35.645 328.493 34.105ZM351.045 34.105V16.395C351.045 14.855 351.522 13.6267 352.475 12.71C353.428 11.7567 354.675 11.28 356.215 11.28H359.625C361.165 11.28 362.412 11.7567 363.365 12.71C364.318 13.6267 364.795 14.855 364.795 16.395V23.16H359.57V16.67C359.57 16.4867 359.478 16.395 359.295 16.395H356.545C356.362 16.395 356.27 16.4867 356.27 16.67V23.16H364.795V28.275H356.27V33.83C356.27 34.0133 356.362 34.105 356.545 34.105H359.295C359.478 34.105 359.57 34.0317 359.57 33.885V30.86H364.795V34.105C364.795 35.645 364.318 36.8917 363.365 37.845C362.412 38.7617 361.165 39.22 359.625 39.22H356.215C354.675 39.22 353.428 38.7617 352.475 37.845C351.522 36.8917 351.045 35.645 351.045 34.105Z"
        fill="black" />
</svg>
